<?xml version="1.0" standalone="no"?>
<!DOCTYPE svg PUBLIC "-//W3C//DTD SVG 20010904//EN"
 "http://www.w3.org/TR/2001/REC-SVG-20010904/DTD/svg10.dtd">
<svg version="1.0" xmlns="http://www.w3.org/2000/svg"
 width="512.000000pt" height="512.000000pt" viewBox="0 0 512.000000 512.000000"
 preserveAspectRatio="xMidYMid meet">
<metadata>
Created by potrace 1.14, written by Peter Selinger 2001-2017
</metadata>
<g transform="translate(0.000000,512.000000) scale(0.100000,-0.100000)"
fill="#000000" stroke="none">
<path d="M3769 4636 c-2 -2 -184 -52 -404 -111 -220 -59 -401 -108 -403 -110
-2 -1 7 -38 18 -81 12 -44 25 -95 30 -114 5 -19 20 -78 35 -130 14 -52 27
-102 29 -110 19 -76 102 -387 126 -470 36 -126 37 -136 8 -81 -23 43 -124 151
-141 151 -5 0 -21 8 -35 19 -15 10 -54 26 -87 36 -56 17 -147 18 -1363 19
-717 1 -1306 -2 -1307 -5 -2 -3 11 -31 30 -62 61 -101 94 -164 110 -208 23
-64 30 -196 16 -271 -12 -58 -58 -165 -99 -227 -30 -46 -42 -65 -54 -88 -11
-22 -16 -23 -144 -23 l-134 0 53 -87 c92 -152 117 -220 122 -330 5 -119 -25
-216 -113 -361 l-61 -102 132 0 132 0 59 -101 c97 -166 110 -205 111 -334 0
-140 -14 -186 -102 -335 l-69 -115 -132 0 -132 1 2 -266 3 -265 2558 0 2557 0
0 265 0 265 -610 0 c-336 0 -610 2 -610 5 0 3 48 18 108 33 59 15 199 52 312
82 113 31 248 67 300 81 52 14 97 27 98 29 2 2 -6 41 -18 87 -12 46 -38 142
-57 213 -19 72 -50 189 -68 260 -19 72 -43 162 -53 200 -11 39 -53 196 -95
350 -41 154 -85 314 -96 355 -11 41 -43 161 -71 265 -28 105 -60 224 -71 265
-28 102 -89 330 -160 600 -32 124 -82 308 -110 410 -28 102 -55 203 -60 225
-29 120 -50 175 -68 175 -10 0 -20 -2 -22 -4z m-410 -1716 c23 -85 71 -265
107 -400 76 -285 118 -441 169 -635 20 -77 76 -286 125 -465 89 -328 104 -387
105 -405 0 -6 -175 -10 -487 -10 -269 0 -488 1 -488 2 0 2 79 26 91 27 24 3
116 65 153 103 139 140 168 342 77 522 -29 56 -121 145 -179 175 -91 45 -141
55 -302 57 l-105 1 51 14 c73 20 142 61 199 120 88 90 126 191 121 323 -2 73
-8 97 -38 161 -56 122 -145 199 -277 240 l-54 17 149 6 c86 3 164 12 184 19
115 44 208 125 258 224 31 62 51 157 46 221 -3 40 24 -50 95 -317z"/>
</g>
</svg>
